<svg width="48" height="48" viewBox="0 0 48 48" fill="none" xmlns="http://www.w3.org/2000/svg">
<circle cx="24" cy="24" r="24" fill="#ECECF7"/>
<path d="M24 26L23.6464 26.3536L24 26.7071L24.3536 26.3536L24 26ZM24.5 17C24.5 16.7239 24.2761 16.5 24 16.5C23.7239 16.5 23.5 16.7239 23.5 17L24.5 17ZM18.6464 21.3536L23.6464 26.3536L24.3536 25.6464L19.3536 20.6464L18.6464 21.3536ZM24.3536 26.3536L29.3536 21.3536L28.6464 20.6464L23.6464 25.6464L24.3536 26.3536ZM24.5 26L24.5 17L23.5 17L23.5 26L24.5 26Z" fill="#2F2B73"/>
<path d="M17 28L17 29C17 30.1046 17.8954 31 19 31L29 31C30.1046 31 31 30.1046 31 29V28" stroke="#2F2B73"/>
</svg>
