<svg width="67" height="670" viewBox="0 0 67 670" fill="none" xmlns="http://www.w3.org/2000/svg">
<g opacity="0.7" clip-path="url(#clip0_1234_6438)">
<g opacity="0.6">
<path d="M4.31898 663.034C9.85165 663.034 15.2864 663.034 20.6722 663.034C28.4571 662.985 36.193 663.132 44.0269 662.838C46.5729 662.74 49.2169 662.397 51.9587 661.173C55.1902 659.753 57.9321 657.305 60.0864 653.878C60.8208 652.752 60.9677 653.045 61.3104 653.584C64.1012 657.648 63.073 667.097 54.162 673.609C50.343 676.4 46.6709 677.33 42.9987 677.673C37.613 678.163 32.423 677.82 27.1841 677.869C19.7909 677.918 12.4466 677.869 5.10237 677.82C4.71067 677.82 4.27002 677.967 4.27002 677.282C4.36794 672.532 4.31898 667.832 4.31898 663.034Z" stroke="#736FC4" stroke-width="0.984381" stroke-miterlimit="10"/>
<path d="M62.6814 649.765C57.1487 649.765 51.7139 649.765 46.3282 649.765C38.5432 649.814 30.8073 649.667 22.9734 649.961C20.4274 650.059 17.7835 650.402 15.0416 651.626C11.8102 653.045 9.06829 655.494 6.91398 658.921C6.17955 660.047 6.03267 659.753 5.68994 659.215C2.89912 655.151 3.92732 645.701 12.8383 639.189C16.6574 636.398 20.3295 635.468 24.0016 635.125C29.3874 634.636 34.5774 634.979 39.8163 634.93C47.2095 634.881 54.5537 634.93 61.898 634.979C62.2897 634.979 62.7303 634.832 62.7303 635.517C62.6814 640.266 62.6814 644.918 62.6814 649.765Z" stroke="#736FC4" stroke-width="0.984381" stroke-miterlimit="10"/>
<path d="M4.31898 615.932C9.85165 615.932 15.2864 615.932 20.6722 615.932C28.4571 615.883 36.193 616.03 44.0269 615.737C46.5729 615.639 49.2169 615.296 51.9587 614.072C55.1902 612.652 57.9321 610.204 60.0864 606.777C60.8208 605.651 60.9677 605.944 61.3104 606.483C64.1012 610.547 63.073 619.996 54.162 626.508C50.343 629.299 46.6709 630.229 42.9987 630.572C37.613 631.062 32.423 630.719 27.1841 630.768C19.7909 630.817 12.4466 630.768 5.10237 630.719C4.71067 630.719 4.27002 630.866 4.27002 630.18C4.36794 625.431 4.31898 620.78 4.31898 615.932Z" stroke="#736FC4" stroke-width="0.984381" stroke-miterlimit="10"/>
<path d="M62.6814 602.664C57.1487 602.664 51.7139 602.664 46.3282 602.664C38.5432 602.713 30.8073 602.566 22.9734 602.86C20.4274 602.958 17.7835 603.3 15.0416 604.524C11.8102 605.944 9.06829 608.392 6.91398 611.82C6.17955 612.946 6.03267 612.652 5.68994 612.113C2.89912 608.05 3.92732 598.6 12.8383 592.088C16.6574 589.297 20.3295 588.367 24.0016 588.024C29.3874 587.535 34.5774 587.877 39.8163 587.828C47.2095 587.779 54.5537 587.828 61.898 587.877C62.2897 587.877 62.7303 587.731 62.7303 588.416C62.6814 593.165 62.6814 597.817 62.6814 602.664Z" stroke="#736FC4" stroke-width="0.984381" stroke-miterlimit="10"/>
<path d="M4.31898 566.873C9.85165 566.873 15.2864 566.873 20.6722 566.873C28.4571 566.824 36.193 566.971 44.0269 566.677C46.5729 566.579 49.2169 566.236 51.9587 565.012C55.1902 563.592 57.9321 561.144 60.0864 557.717C60.8208 556.591 60.9677 556.885 61.3104 557.423C64.1012 561.487 63.073 570.937 54.162 577.448C50.343 580.239 46.6709 581.17 42.9987 581.512C37.613 582.002 32.423 581.659 27.1841 581.708C19.7909 581.757 12.4466 581.708 5.10237 581.659C4.71067 581.659 4.27002 581.806 4.27002 581.121C4.36794 576.371 4.31898 571.671 4.31898 566.873Z" stroke="#736FC4" stroke-width="0.984381" stroke-miterlimit="10"/>
<path d="M62.6814 553.604C57.1487 553.604 51.7139 553.604 46.3282 553.604C38.5432 553.653 30.8073 553.506 22.9734 553.8C20.4274 553.898 17.7835 554.241 15.0416 555.465C11.8102 556.885 9.06829 559.333 6.91398 562.76C6.17955 563.886 6.03267 563.592 5.68994 563.054C2.89912 558.99 3.92732 549.54 12.8383 543.028C16.6574 540.238 20.3295 539.307 24.0016 538.965C29.3874 538.475 34.5774 538.818 39.8163 538.769C47.2095 538.72 54.5537 538.769 61.898 538.818C62.2897 538.818 62.7303 538.671 62.7303 539.356C62.6814 544.106 62.6814 548.757 62.6814 553.604Z" stroke="#736FC4" stroke-width="0.984381" stroke-miterlimit="10"/>
<path d="M4.31898 519.772C9.85165 519.772 15.2864 519.772 20.6722 519.772C28.4571 519.723 36.193 519.87 44.0269 519.576C46.5729 519.478 49.2169 519.135 51.9587 517.911C55.1902 516.491 57.9321 514.043 60.0864 510.616C60.8208 509.49 60.9677 509.783 61.3104 510.322C64.1012 514.386 63.073 523.835 54.162 530.347C50.343 533.138 46.6709 534.068 42.9987 534.411C37.613 534.901 32.423 534.558 27.1841 534.607C19.7909 534.656 12.4466 534.607 5.10237 534.558C4.71067 534.558 4.27002 534.705 4.27002 534.019C4.36794 529.27 4.31898 524.57 4.31898 519.772Z" stroke="#736FC4" stroke-width="0.984381" stroke-miterlimit="10"/>
<path d="M62.6814 506.503C57.1487 506.503 51.7139 506.503 46.3282 506.503C38.5432 506.552 30.8073 506.405 22.9734 506.699C20.4274 506.797 17.7835 507.139 15.0416 508.363C11.8102 509.783 9.06829 512.231 6.91398 515.659C6.17955 516.785 6.03267 516.491 5.68994 515.953C2.89912 511.889 3.92732 502.439 12.8383 495.927C16.6574 493.136 20.3295 492.206 24.0016 491.863C29.3874 491.374 34.5774 491.717 39.8163 491.668C47.2095 491.619 54.5537 491.668 61.898 491.717C62.2897 491.717 62.7303 491.57 62.7303 492.255C62.6814 497.004 62.6814 501.656 62.6814 506.503Z" stroke="#736FC4" stroke-width="0.984381" stroke-miterlimit="10"/>
<path d="M4.31898 470.712C9.85165 470.712 15.2864 470.712 20.6722 470.712C28.4571 470.663 36.193 470.81 44.0269 470.516C46.5729 470.418 49.2169 470.075 51.9587 468.851C55.1902 467.432 57.9321 464.983 60.0864 461.556C60.8208 460.43 60.9677 460.724 61.3104 461.262C64.1012 465.326 63.073 474.776 54.162 481.288C50.343 484.079 46.6709 485.009 42.9987 485.352C37.613 485.841 32.423 485.498 27.1841 485.547C19.7909 485.596 12.4466 485.547 5.10237 485.498C4.71067 485.498 4.27002 485.645 4.27002 484.96C4.36794 480.211 4.31898 475.51 4.31898 470.712Z" stroke="#736FC4" stroke-width="0.984381" stroke-miterlimit="10"/>
<path d="M62.6814 457.443C57.1487 457.443 51.7139 457.443 46.3282 457.443C38.5432 457.492 30.8073 457.345 22.9734 457.639C20.4274 457.737 17.7835 458.08 15.0416 459.304C11.8102 460.724 9.06829 463.172 6.91398 466.599C6.17955 467.725 6.03267 467.432 5.68994 466.893C2.89912 462.829 3.92732 453.38 12.8383 446.868C16.6574 444.077 20.3295 443.147 24.0016 442.804C29.3874 442.314 34.5774 442.657 39.8163 442.608C47.2095 442.559 54.5537 442.608 61.898 442.657C62.2897 442.657 62.7303 442.51 62.7303 443.195C62.6814 447.945 62.6814 452.596 62.6814 457.443Z" stroke="#736FC4" stroke-width="0.984381" stroke-miterlimit="10"/>
<path d="M4.31898 423.611C9.85165 423.611 15.2864 423.611 20.6722 423.611C28.4571 423.562 36.193 423.709 44.0269 423.415C46.5729 423.317 49.2169 422.974 51.9587 421.75C55.1902 420.33 57.9321 417.882 60.0864 414.455C60.8208 413.329 60.9677 413.623 61.3104 414.161C64.1012 418.225 63.073 427.675 54.162 434.187C50.343 436.977 46.6709 437.908 42.9987 438.25C37.613 438.74 32.423 438.397 27.1841 438.446C19.7909 438.495 12.4466 438.446 5.10237 438.397C4.71067 438.397 4.27002 438.544 4.27002 437.859C4.36794 433.109 4.31898 428.409 4.31898 423.611Z" stroke="#736FC4" stroke-width="0.984381" stroke-miterlimit="10"/>
<path d="M62.6814 410.342C57.1487 410.342 51.7139 410.342 46.3282 410.342C38.5432 410.391 30.8073 410.244 22.9734 410.538C20.4274 410.636 17.7835 410.979 15.0416 412.203C11.8102 413.623 9.06829 416.071 6.91398 419.498C6.17955 420.624 6.03267 420.33 5.68994 419.792C2.89912 415.728 3.92732 406.278 12.8383 399.767C16.6574 396.976 20.3295 396.045 24.0016 395.703C29.3874 395.213 34.5774 395.556 39.8163 395.507C47.2095 395.458 54.5537 395.507 61.898 395.556C62.2897 395.556 62.7303 395.409 62.7303 396.094C62.6814 400.844 62.6814 405.495 62.6814 410.342Z" stroke="#736FC4" stroke-width="0.984381" stroke-miterlimit="10"/>
<path d="M4.31898 374.502C9.85165 374.502 15.2864 374.502 20.6722 374.502C28.4571 374.453 36.193 374.6 44.0269 374.306C46.5729 374.208 49.2169 373.866 51.9587 372.642C55.1902 371.222 57.9321 368.774 60.0864 365.346C60.8208 364.22 60.9677 364.514 61.3104 365.053C64.1012 369.116 63.073 378.566 54.162 385.078C50.343 387.869 46.6709 388.799 42.9987 389.142C37.613 389.631 32.423 389.289 27.1841 389.338C19.7909 389.387 12.4466 389.338 5.10237 389.289C4.71067 389.289 4.27002 389.436 4.27002 388.75C4.36794 384.05 4.31898 379.349 4.31898 374.502Z" stroke="#736FC4" stroke-width="0.984381" stroke-miterlimit="10"/>
<path d="M62.6814 361.282C57.1487 361.282 51.7139 361.282 46.3282 361.282C38.5432 361.331 30.8073 361.185 22.9734 361.478C20.4274 361.576 17.7835 361.919 15.0416 363.143C11.8102 364.563 9.06829 367.011 6.91398 370.438C6.17955 371.564 6.03267 371.271 5.68994 370.732C2.89912 366.668 3.92732 357.219 12.8383 350.707C16.6574 347.916 20.3295 346.986 24.0016 346.643C29.3874 346.153 34.5774 346.496 39.8163 346.447C47.2095 346.398 54.5537 346.447 61.898 346.496C62.2897 346.496 62.7303 346.349 62.7303 347.035C62.6814 351.735 62.6814 356.435 62.6814 361.282Z" stroke="#736FC4" stroke-width="0.984381" stroke-miterlimit="10"/>
</g>
<g opacity="0.6">
<path d="M62.6814 -12.0691C57.1487 -12.0691 51.7139 -12.0691 46.3282 -12.0691C38.5432 -12.1181 30.8073 -11.9712 22.9734 -12.265C20.4274 -12.3629 17.7835 -12.7056 15.0416 -13.9297C11.8102 -15.3495 9.06829 -17.7976 6.91398 -21.2249C6.17955 -22.3511 6.03267 -22.0573 5.68994 -21.5187C2.89912 -17.4549 3.92732 -8.00528 12.8383 -1.49337C16.6574 1.29744 20.3295 2.22772 24.0016 2.57045C29.3874 3.06006 34.5774 2.71733 39.8163 2.76629C47.2095 2.81526 54.5537 2.7663 61.898 2.71733C62.2897 2.71733 62.7303 2.86422 62.7303 2.17876C62.6814 -2.57053 62.6814 -7.27086 62.6814 -12.0691Z" stroke="#736FC4" stroke-width="0.984381" stroke-miterlimit="10"/>
<path d="M4.31898 23.7219C9.85165 23.7219 15.2864 23.7219 20.6722 23.7219C28.4571 23.7709 36.193 23.624 44.0269 23.9177C46.5729 24.0157 49.2169 24.3584 51.9587 25.5824C55.1902 27.0023 57.9321 29.4504 60.0864 32.8777C60.8208 34.0039 60.9677 33.7101 61.3104 33.1715C64.1012 29.1077 63.073 19.6581 54.162 13.1462C50.343 10.3554 46.6709 9.42508 42.9987 9.08235C37.613 8.59273 32.423 8.93546 27.1841 8.8865C19.7909 8.83754 12.4466 8.8865 5.10237 8.93546C4.71067 8.93546 4.27002 8.78858 4.27002 9.47404C4.36794 14.2233 4.31898 18.9236 4.31898 23.7219Z" stroke="#736FC4" stroke-width="0.984381" stroke-miterlimit="10"/>
<path d="M62.6814 36.9905C57.1487 36.9905 51.7139 36.9905 46.3282 36.9905C38.5432 36.9416 30.8073 37.0885 22.9734 36.7947C20.4274 36.6968 17.7835 36.354 15.0416 35.13C11.8102 33.7101 9.06829 31.262 6.91398 27.8347C6.17955 26.7086 6.03267 27.0023 5.68994 27.5409C2.89912 31.6047 3.92732 41.0544 12.8383 47.5663C16.6574 50.3571 20.3295 51.2873 24.0016 51.6301C29.3874 52.1197 34.5774 51.777 39.8163 51.8259C47.2095 51.8749 54.5537 51.8259 61.898 51.777C62.2897 51.777 62.7303 51.9239 62.7303 51.2384C62.6814 46.4891 62.6814 41.8377 62.6814 36.9905Z" stroke="#736FC4" stroke-width="0.984381" stroke-miterlimit="10"/>
<path d="M4.31898 70.823C9.85165 70.823 15.2864 70.823 20.6722 70.823C28.4571 70.872 36.193 70.7251 44.0269 71.0189C46.5729 71.1168 49.2169 71.4595 51.9587 72.6836C55.1902 74.1035 57.9321 76.5515 60.0864 79.9789C60.8208 81.105 60.9677 80.8112 61.3104 80.2726C64.1012 76.2088 63.073 66.7592 54.162 60.2473C50.343 57.4565 46.6709 56.5262 42.9987 56.1835C37.613 55.6939 32.423 56.0366 27.1841 55.9876C19.7909 55.9387 12.4466 55.9876 5.10237 56.0366C4.71067 56.0366 4.27002 55.8897 4.27002 56.5752C4.36794 61.3245 4.31898 65.9758 4.31898 70.823Z" stroke="#736FC4" stroke-width="0.984381" stroke-miterlimit="10"/>
<path d="M62.6814 84.0917C57.1487 84.0917 51.7139 84.0917 46.3282 84.0917C38.5432 84.0427 30.8073 84.1896 22.9734 83.8958C20.4274 83.7979 17.7835 83.4552 15.0416 82.2311C11.8102 80.8112 9.06829 78.3631 6.91398 74.9358C6.17955 73.8097 6.03267 74.1035 5.68994 74.642C2.89912 78.7059 3.92732 88.1555 12.8383 94.6674C16.6574 97.4582 20.3295 98.3885 24.0016 98.7312C29.3874 99.2208 34.5774 98.8781 39.8163 98.9271C47.2095 98.976 54.5537 98.9271 61.898 98.8781C62.2897 98.8781 62.7303 99.025 62.7303 98.3395C62.6814 93.5902 62.6814 88.9389 62.6814 84.0917Z" stroke="#736FC4" stroke-width="0.984381" stroke-miterlimit="10"/>
<path d="M4.31898 119.883C9.85165 119.883 15.2864 119.883 20.6722 119.883C28.4571 119.932 36.193 119.785 44.0269 120.079C46.5729 120.177 49.2169 120.519 51.9587 121.743C55.1902 123.163 57.9321 125.611 60.0864 129.039C60.8208 130.165 60.9677 129.871 61.3104 129.332C64.1012 125.269 63.073 115.819 54.162 109.307C50.343 106.516 46.6709 105.586 42.9987 105.243C37.613 104.754 32.423 105.096 27.1841 105.047C19.7909 104.998 12.4466 105.047 5.10237 105.096C4.71067 105.096 4.27002 104.949 4.27002 105.635C4.36794 110.384 4.31898 115.085 4.31898 119.883Z" stroke="#736FC4" stroke-width="0.984381" stroke-miterlimit="10"/>
<path d="M62.6814 133.151C57.1487 133.151 51.7139 133.151 46.3282 133.151C38.5432 133.102 30.8073 133.249 22.9734 132.956C20.4274 132.858 17.7835 132.515 15.0416 131.291C11.8102 129.871 9.06829 127.423 6.91398 123.996C6.17955 122.869 6.03267 123.163 5.68994 123.702C2.89912 127.766 3.92732 137.215 12.8383 143.727C16.6574 146.518 20.3295 147.448 24.0016 147.791C29.3874 148.281 34.5774 147.938 39.8163 147.987C47.2095 148.036 54.5537 147.987 61.898 147.938C62.2897 147.938 62.7303 148.085 62.7303 147.399C62.6814 142.65 62.6814 137.999 62.6814 133.151Z" stroke="#736FC4" stroke-width="0.984381" stroke-miterlimit="10"/>
<path d="M4.31898 166.984C9.85165 166.984 15.2864 166.984 20.6722 166.984C28.4571 167.033 36.193 166.886 44.0269 167.18C46.5729 167.278 49.2169 167.62 51.9587 168.844C55.1902 170.264 57.9321 172.712 60.0864 176.14C60.8208 177.266 60.9677 176.972 61.3104 176.434C64.1012 172.37 63.073 162.92 54.162 156.408C50.343 153.617 46.6709 152.687 42.9987 152.344C37.613 151.855 32.423 152.197 27.1841 152.149C19.7909 152.1 12.4466 152.149 5.10237 152.197C4.71067 152.197 4.27002 152.051 4.27002 152.736C4.36794 157.485 4.31898 162.186 4.31898 166.984Z" stroke="#736FC4" stroke-width="0.984381" stroke-miterlimit="10"/>
<path d="M62.6814 180.253C57.1487 180.253 51.7139 180.253 46.3282 180.253C38.5432 180.204 30.8073 180.35 22.9734 180.057C20.4274 179.959 17.7835 179.616 15.0416 178.392C11.8102 176.972 9.06829 174.524 6.91398 171.097C6.17955 169.971 6.03267 170.264 5.68994 170.803C2.89912 174.867 3.92732 184.316 12.8383 190.828C16.6574 193.619 20.3295 194.549 24.0016 194.892C29.3874 195.382 34.5774 195.039 39.8163 195.088C47.2095 195.137 54.5537 195.088 61.898 195.039C62.2897 195.039 62.7303 195.186 62.7303 194.5C62.6814 189.751 62.6814 185.1 62.6814 180.253Z" stroke="#736FC4" stroke-width="0.984381" stroke-miterlimit="10"/>
<path d="M4.31898 216.044C9.85165 216.044 15.2864 216.044 20.6722 216.044C28.4571 216.093 36.193 215.946 44.0269 216.239C46.5729 216.337 49.2169 216.68 51.9587 217.904C55.1902 219.324 57.9321 221.772 60.0864 225.199C60.8208 226.326 60.9677 226.032 61.3104 225.493C64.1012 221.429 63.073 211.98 54.162 205.468C50.343 202.677 46.6709 201.747 42.9987 201.404C37.613 200.914 32.423 201.257 27.1841 201.208C19.7909 201.159 12.4466 201.208 5.10237 201.257C4.71067 201.257 4.27002 201.11 4.27002 201.796C4.36794 206.545 4.31898 211.245 4.31898 216.044Z" stroke="#736FC4" stroke-width="0.984381" stroke-miterlimit="10"/>
<path d="M62.6814 229.312C57.1487 229.312 51.7139 229.312 46.3282 229.312C38.5432 229.263 30.8073 229.41 22.9734 229.116C20.4274 229.018 17.7835 228.676 15.0416 227.452C11.8102 226.032 9.06829 223.584 6.91398 220.156C6.17955 219.03 6.03267 219.324 5.68994 219.863C2.89912 223.926 3.92732 233.376 12.8383 239.888C16.6574 242.679 20.3295 243.609 24.0016 243.952C29.3874 244.441 34.5774 244.099 39.8163 244.148C47.2095 244.196 54.5537 244.148 61.898 244.099C62.2897 244.099 62.7303 244.245 62.7303 243.56C62.6814 238.811 62.6814 234.159 62.6814 229.312Z" stroke="#736FC4" stroke-width="0.984381" stroke-miterlimit="10"/>
<path d="M4.31898 263.145C9.85165 263.145 15.2864 263.145 20.6722 263.145C28.4571 263.194 36.193 263.047 44.0269 263.341C46.5729 263.438 49.2169 263.781 51.9587 265.005C55.1902 266.425 57.9321 268.873 60.0864 272.301C60.8208 273.427 60.9677 273.133 61.3104 272.594C64.1012 268.53 63.073 259.081 54.162 252.569C50.343 249.778 46.6709 248.848 42.9987 248.505C37.613 248.016 32.423 248.358 27.1841 248.309C19.7909 248.26 12.4466 248.309 5.10237 248.358C4.71067 248.358 4.27002 248.211 4.27002 248.897C4.36794 253.646 4.31898 258.346 4.31898 263.145Z" stroke="#736FC4" stroke-width="0.984381" stroke-miterlimit="10"/>
<path d="M62.6814 276.413C57.1487 276.413 51.7139 276.413 46.3282 276.413C38.5432 276.364 30.8073 276.511 22.9734 276.217C20.4274 276.12 17.7835 275.777 15.0416 274.553C11.8102 273.133 9.06829 270.685 6.91398 267.257C6.17955 266.131 6.03267 266.425 5.68994 266.964C2.89912 271.028 3.92732 280.477 12.8383 286.989C16.6574 289.78 20.3295 290.71 24.0016 291.053C29.3874 291.542 34.5774 291.2 39.8163 291.249C47.2095 291.298 54.5537 291.249 61.898 291.2C62.2897 291.2 62.7303 291.347 62.7303 290.661C62.6814 285.912 62.6814 281.261 62.6814 276.413Z" stroke="#736FC4" stroke-width="0.984381" stroke-miterlimit="10"/>
<path d="M4.31898 312.253C9.85165 312.253 15.2864 312.253 20.6722 312.253C28.4571 312.302 36.193 312.155 44.0269 312.449C46.5729 312.547 49.2169 312.89 51.9587 314.114C55.1902 315.534 57.9321 317.982 60.0864 321.409C60.8208 322.535 60.9677 322.242 61.3104 321.703C64.1012 317.639 63.073 308.189 54.162 301.678C50.343 298.887 46.6709 297.957 42.9987 297.614C37.613 297.124 32.423 297.467 27.1841 297.418C19.7909 297.369 12.4466 297.418 5.10237 297.467C4.71067 297.467 4.27002 297.32 4.27002 298.005C4.36794 302.706 4.31898 307.406 4.31898 312.253Z" stroke="#736FC4" stroke-width="0.984381" stroke-miterlimit="10"/>
<path d="M62.6814 325.473C57.1487 325.473 51.7139 325.473 46.3282 325.473C38.5432 325.424 30.8073 325.571 22.9734 325.277C20.4274 325.179 17.7835 324.837 15.0416 323.612C11.8102 322.193 9.06829 319.744 6.91398 316.317C6.17955 315.191 6.03267 315.485 5.68994 316.023C2.89912 320.087 3.92732 329.537 12.8383 336.049C16.6574 338.84 20.3295 339.77 24.0016 340.113C29.3874 340.602 34.5774 340.259 39.8163 340.308C47.2095 340.357 54.5537 340.308 61.898 340.259C62.2897 340.259 62.7303 340.406 62.7303 339.721C62.6814 335.021 62.6814 330.32 62.6814 325.473Z" stroke="#736FC4" stroke-width="0.984381" stroke-miterlimit="10"/>
</g>
</g>
<defs>
<clipPath id="clip0_1234_6438">
<rect width="727" height="67" fill="white" transform="matrix(0 -1 1 0 0 727)"/>
</clipPath>
</defs>
</svg>
