<svg width="1448" height="552" viewBox="0 0 1448 552" fill="none" xmlns="http://www.w3.org/2000/svg">
<g clip-path="url(#clip0_1992_1319)">
<rect width="1448" height="552" fill="url(#paint0_linear_1992_1319)"/>
<g opacity="0.43">
<path d="M-78.1501 -97.4078C-76.7241 -95.1944 67.7111 125.86 407.829 296.524C607.58 396.763 834.745 460.28 1083.01 485.318C1393.28 516.606 1737.55 487.531 2106.26 398.911L2105.21 396.552C1271.49 596.948 723.108 451.686 409.874 294.546C70.4636 124.271 -73.6731 -96.2565 -75.088 -98.47L-78.1501 -97.4078Z" fill="url(#paint1_linear_1992_1319)"/>
<path d="M-83.2022 -71.8759C-81.6988 -69.703 70.4854 147.168 415.335 309.878C617.871 405.438 846.263 463.913 1094.17 483.672C1403.97 508.36 1745.27 472.312 2108.6 376.525L2107.46 374.19C1285.94 590.786 734.903 457.67 417.313 307.867C73.1716 145.538 -78.681 -70.8219 -80.1734 -72.9868L-83.2022 -71.8759Z" fill="url(#paint2_linear_1992_1319)"/>
<path d="M-88.243 -46.344C-86.6733 -44.2116 73.26 168.484 422.863 323.224C628.196 414.106 857.815 467.529 1105.34 482.01C1414.69 500.107 1753.02 457.078 2110.94 354.123L2109.71 351.812C1300.4 584.599 746.709 463.629 424.753 321.164C75.8799 166.781 -83.6996 -45.4035 -85.2694 -47.5278L-88.243 -46.344Z" fill="url(#paint3_linear_1992_1319)"/>
<path d="M-93.2952 -20.8203C-91.637 -18.7284 76.0232 189.783 430.368 336.561C638.487 422.765 869.333 471.145 1116.5 480.339C1425.37 491.836 1760.74 441.835 2113.27 331.721L2111.94 329.443C1314.83 578.421 758.503 469.596 432.181 334.461C78.5657 188.024 -88.7187 -19.9771 -90.3658 -22.0689L-93.2952 -20.8203Z" fill="url(#paint4_linear_1992_1319)"/>
<path d="M-98.3344 4.71161C-96.61 6.76292 78.7994 211.091 437.887 349.907C648.791 431.432 880.865 474.761 1127.65 478.685C1436.07 483.591 1768.47 426.608 2115.61 309.327L2114.19 307.073C1329.27 572.251 770.311 475.572 439.611 347.766C81.2644 209.283 -93.7358 5.44133 -95.4602 3.39813L-98.3344 4.71161Z" fill="url(#paint5_linear_1992_1319)"/>
<path d="M-103.375 30.2354C-101.562 32.2381 81.574 232.399 445.415 363.245C659.105 440.1 892.405 478.377 1138.83 477.015C1446.79 475.32 1776.21 411.365 2117.95 286.916L2116.45 284.695C1343.73 566.073 782.117 481.531 447.051 361.063C83.9727 230.526 -98.7545 30.8597 -100.556 28.8571L-103.375 30.2354Z" fill="url(#paint6_linear_1992_1319)"/>
<path d="M-108.417 55.7673C-106.538 57.7295 84.3472 253.706 452.93 376.59C669.406 448.767 903.933 481.993 1149.99 475.361C1457.49 467.067 1783.94 396.138 2120.29 264.53L2118.7 262.341C1358.18 559.911 793.921 487.515 454.489 374.385C86.6797 251.793 -103.764 56.3025 -105.643 54.3403L-108.417 55.7673Z" fill="url(#paint7_linear_1992_1319)"/>
<path d="M-113.457 81.2992C-111.5 83.2208 87.1233 275.014 460.448 389.936C679.71 457.434 915.465 485.618 1161.15 473.699C1468.19 458.813 1791.67 380.895 2122.62 242.128L2120.94 239.971C1372.63 553.74 805.718 493.49 461.919 387.69C89.3784 273.044 -108.792 81.7289 -110.748 79.8073L-113.457 81.2992Z" fill="url(#paint8_linear_1992_1319)"/>
<path d="M-115.845 105.274L-118.498 106.823C-116.453 108.704 89.8976 296.313 467.976 403.273C690.023 466.094 927.005 489.226 1172.32 472.029C1478.89 450.551 1799.4 365.661 2124.96 219.726L2123.19 217.61C1387.06 547.578 817.512 499.466 469.347 401.003C92.0752 294.303 -113.811 107.155 -115.845 105.274Z" fill="url(#paint9_linear_1992_1319)"/>
<path d="M-120.941 130.741L-123.528 132.347C-121.405 134.187 92.683 317.613 475.504 416.611C700.337 474.753 938.545 492.842 1183.49 470.367C1489.58 442.281 1807.14 350.418 2127.29 197.324L2125.44 195.248C1401.52 541.416 829.318 505.442 476.775 414.316C94.7721 315.562 -118.83 132.582 -120.941 130.741Z" fill="url(#paint10_linear_1992_1319)"/>
<path d="M-126.049 156.216L-128.569 157.871C-126.369 159.671 95.4456 338.921 483.02 429.948C710.638 483.412 950.063 496.45 1194.64 468.696C1500.28 434.019 1814.86 335.183 2129.62 174.922L2127.69 172.886C1415.96 535.246 841.112 511.425 484.203 427.63C97.4686 336.821 -123.849 158.016 -126.049 156.216Z" fill="url(#paint11_linear_1992_1319)"/>
<path d="M-131.143 181.692L-133.597 183.394C-131.32 185.154 98.2329 360.22 490.549 443.286C720.965 492.071 961.605 500.058 1205.81 467.034C1510.98 425.757 1822.59 319.94 2131.96 152.519L2129.94 150.517C1430.42 529.076 852.92 517.393 491.633 440.935C100.156 358.08 -128.877 183.443 -131.143 181.692Z" fill="url(#paint12_linear_1992_1319)"/>
<path d="M-136.25 207.159L-138.638 208.918C-136.283 210.637 101.007 381.52 498.066 456.615C731.267 500.723 973.135 503.666 1216.97 465.356C1521.68 417.495 1830.38 304.713 2134.29 130.117L2132.2 128.163C2127.04 131.131 2121.86 134.074 2116.72 137.001C1436.15 522.922 861.973 522.857 499.072 454.248C102.854 379.339 -133.907 208.878 -136.25 207.159Z" fill="url(#paint13_linear_1992_1319)"/>
<path d="M-141.347 232.634L-143.668 234.442C-141.236 236.12 103.793 402.819 505.594 469.953C741.569 509.382 984.675 507.274 1228.13 463.694C1532.38 409.225 1838.03 289.446 2136.62 107.707L2134.45 105.793C1459.33 516.76 876.52 529.352 506.5 467.553C105.55 400.606 -138.926 234.304 -141.347 232.634Z" fill="url(#paint14_linear_1992_1319)"/>
</g>
</g>
<defs>
<linearGradient id="paint0_linear_1992_1319" x1="1461.5" y1="178.093" x2="19.0356" y2="547.846" gradientUnits="userSpaceOnUse">
<stop stop-color="#14123A"/>
<stop offset="0.400022" stop-color="#312E75"/>
<stop offset="1" stop-color="#4E48AB"/>
</linearGradient>
<linearGradient id="paint1_linear_1992_1319" x1="-32.5079" y1="253.592" x2="1609.66" y2="160.798" gradientUnits="userSpaceOnUse">
<stop stop-color="#D4D3F2"/>
<stop offset="1" stop-color="#2F2B73"/>
</linearGradient>
<linearGradient id="paint2_linear_1992_1319" x1="-37.4056" y1="260.307" x2="1609.66" y2="161.662" gradientUnits="userSpaceOnUse">
<stop stop-color="#D4D3F2"/>
<stop offset="1" stop-color="#2F2B73"/>
</linearGradient>
<linearGradient id="paint3_linear_1992_1319" x1="-42.2921" y1="267.669" x2="1609.58" y2="162.704" gradientUnits="userSpaceOnUse">
<stop stop-color="#D4D3F2"/>
<stop offset="1" stop-color="#2F2B73"/>
</linearGradient>
<linearGradient id="paint4_linear_1992_1319" x1="-47.1901" y1="275.678" x2="1609.38" y2="163.872" gradientUnits="userSpaceOnUse">
<stop stop-color="#D4D3F2"/>
<stop offset="1" stop-color="#2F2B73"/>
</linearGradient>
<linearGradient id="paint5_linear_1992_1319" x1="-52.0753" y1="284.343" x2="1609.05" y2="165.127" gradientUnits="userSpaceOnUse">
<stop stop-color="#D4D3F2"/>
<stop offset="1" stop-color="#2F2B73"/>
</linearGradient>
<linearGradient id="paint6_linear_1992_1319" x1="-56.9616" y1="293.624" x2="1608.56" y2="166.366" gradientUnits="userSpaceOnUse">
<stop stop-color="#D4D3F2"/>
<stop offset="1" stop-color="#2F2B73"/>
</linearGradient>
<linearGradient id="paint7_linear_1992_1319" x1="-61.8497" y1="303.545" x2="1607.89" y2="167.546" gradientUnits="userSpaceOnUse">
<stop stop-color="#D4D3F2"/>
<stop offset="1" stop-color="#2F2B73"/>
</linearGradient>
<linearGradient id="paint8_linear_1992_1319" x1="-66.7347" y1="314.067" x2="1606.99" y2="168.567" gradientUnits="userSpaceOnUse">
<stop stop-color="#D4D3F2"/>
<stop offset="1" stop-color="#2F2B73"/>
</linearGradient>
<linearGradient id="paint9_linear_1992_1319" x1="-71.6219" y1="325.184" x2="1605.83" y2="169.333" gradientUnits="userSpaceOnUse">
<stop stop-color="#D4D3F2"/>
<stop offset="1" stop-color="#2F2B73"/>
</linearGradient>
<linearGradient id="paint10_linear_1992_1319" x1="-76.4979" y1="336.896" x2="1604.37" y2="169.761" gradientUnits="userSpaceOnUse">
<stop stop-color="#D4D3F2"/>
<stop offset="1" stop-color="#2F2B73"/>
</linearGradient>
<linearGradient id="paint11_linear_1992_1319" x1="-81.3856" y1="349.186" x2="1602.54" y2="169.721" gradientUnits="userSpaceOnUse">
<stop stop-color="#D4D3F2"/>
<stop offset="1" stop-color="#2F2B73"/>
</linearGradient>
<linearGradient id="paint12_linear_1992_1319" x1="-86.2598" y1="349.287" x2="1604.13" y2="173.82" gradientUnits="userSpaceOnUse">
<stop stop-color="#D4D3F2"/>
<stop offset="1" stop-color="#2F2B73"/>
</linearGradient>
<linearGradient id="paint13_linear_1992_1319" x1="-91.1463" y1="343.125" x2="1607.27" y2="179.574" gradientUnits="userSpaceOnUse">
<stop stop-color="#D4D3F2"/>
<stop offset="1" stop-color="#2F2B73"/>
</linearGradient>
<linearGradient id="paint14_linear_1992_1319" x1="-96.0228" y1="337.505" x2="1609.99" y2="184.604" gradientUnits="userSpaceOnUse">
<stop stop-color="#D4D3F2"/>
<stop offset="1" stop-color="#2F2B73"/>
</linearGradient>
<clipPath id="clip0_1992_1319">
<rect width="1448" height="552" fill="white"/>
</clipPath>
</defs>
</svg>
