<svg width="426" height="498" viewBox="0 0 426 498" fill="none" xmlns="http://www.w3.org/2000/svg">
<g clip-path="url(#clip0_1830_1657)">
<rect width="426" height="498" fill="#EFF1FF"/>
<g opacity="0.15">
<path d="M115.941 279.645C111.828 281.586 108.118 283.249 104.518 285.052C86.7032 293.982 77.3449 309.155 74.8243 329.398C72.4177 348.716 72.4211 368.939 72.3708 389.127C72.2736 428.829 72.4278 468.617 72.6356 508.426C72.649 511.216 71.6301 512.013 68.6838 511.986C51.2879 511.835 33.9859 511.912 16.5732 511.912C16.3486 511.501 15.9967 511.102 16 510.828C16.5196 457.917 15.2794 404.391 17.029 351.908C17.5318 336.815 19.1708 322.301 26.2432 310.444C37.5086 291.55 56.6441 281.616 81.9805 278.735C92.5253 277.537 103.637 277.778 115.941 279.642V279.645Z" fill="#2F2B73"/>
<path d="M184.766 279.625C181.11 281.291 177.989 282.677 174.915 284.119C154.784 293.571 145.027 310.554 142.996 333.232C140.482 361.323 140.988 390.499 140.951 419.48C140.911 449.037 141.109 478.675 141.327 508.319C141.347 510.969 140.586 512.036 137.486 511.999C120.824 511.802 104.262 511.865 87.7146 511.949C85.2711 511.962 84.5773 511.618 84.594 509.142C84.9896 456.763 84.3393 404.019 85.5258 351.918C85.8677 336.896 87.842 322.589 94.7165 310.768C105.955 291.449 125.292 281.311 151.231 278.698C161.646 277.648 172.579 277.986 184.766 279.622V279.625Z" fill="#2F2B73"/>
<path d="M220.359 511.899C220.339 490.194 220.389 469.102 220.282 447.957C220.125 417.53 220.738 387.361 219.618 356.609C219.256 346.635 217.885 336.414 213.384 325.603C208.088 312.883 198.797 302.273 185.976 293.845C181.729 291.054 182.842 290.425 184.817 289.03C200.128 278.213 235.439 282.161 259.823 316.898C270.254 331.756 273.784 346.271 274.99 360.564C276.774 381.706 275.627 401.881 275.734 422.468C275.885 451.292 275.677 479.996 275.607 508.747C275.604 510.259 276.17 511.972 273.616 511.956C256.012 511.845 238.476 511.899 220.356 511.899H220.359Z" fill="#2F2B73"/>
<path d="M153.306 511.905C153.239 497.408 153.095 483.449 153.122 469.547C153.206 429.391 151.959 388.769 153.353 349.071C153.933 332.61 156.581 317.145 165.219 304.849C167.555 301.524 170.377 298.613 173.293 295.769C174.567 294.527 175.663 294.655 177.828 296.24C196.314 309.778 205.685 325.647 207.086 342.895C208.752 363.404 208.018 383.158 208.112 403.17C208.276 438.388 208.176 473.515 208.313 508.727C208.323 511.166 207.505 512.002 204.82 511.982C187.817 511.848 170.893 511.915 153.306 511.915V511.905Z" fill="#2F2B73"/>
</g>
</g>
<defs>
<clipPath id="clip0_1830_1657">
<rect width="426" height="498" fill="white"/>
</clipPath>
</defs>
</svg>
